<?xml version="1.0" encoding="utf-8"?>
<!-- Generator: Adobe Illustrator 16.0.0, SVG Export Plug-In . SVG Version: 6.00 Build 0)  -->
<!DOCTYPE svg PUBLIC "-//W3C//DTD SVG 1.1//EN" "http://www.w3.org/Graphics/SVG/1.1/DTD/svg11.dtd">
<svg version="1.1" id="icons" xmlns="http://www.w3.org/2000/svg" xmlns:xlink="http://www.w3.org/1999/xlink" x="0px" y="0px"
	 width="64px" height="64px" viewBox="0 0 64 64" enable-background="new 0 0 64 64" xml:space="preserve">
<g>
	<g>
		<path fill="#EAC6BB" d="M41,37.52v2.98c0,3.53-2.04,6.59-5,8.06c-1.2,0.601-2.57,0.94-4,0.94s-2.8-0.34-4-0.94
			c-2.95-1.46-4.98-4.5-5-8.01V40.5v-2.98l3-2.02c0,0,3.01,1,6.5,1s5.5-1,5.5-1L41,37.52z"/>
	</g>
	<g>
		<path fill="#D3B1A9" d="M38,35.5l-0.003,0.001V40.5c0,3.53-2.04,6.59-5,8.06c-0.771,0.386-1.616,0.649-2.499,0.8
			C30.989,49.442,31.488,49.5,32,49.5c1.43,0,2.8-0.34,4-0.94c2.96-1.47,5-4.529,5-8.06v-2.98L38,35.5z"/>
	</g>
	<g>
		<path fill="#FFCE54" d="M15,23.91l-2,4.06c-1.87,0.391-4.19,2.34-10,1.66c-0.32-0.04-0.65-0.08-1-0.14v-0.5
			c0-4.141,3.36-7.5,7.5-7.5C11.68,21.49,13.64,22.42,15,23.91z"/>
	</g>
	<g>
		<path fill="#F6BB42" d="M17,28.99v1.38c-1.72-2.25-2.76-2.66-4-2.4l2-4.06C16.25,25.24,17,27.03,17,28.99z"/>
	</g>
	<g>
		<rect x="27" y="7.5" fill="#E6E9ED" width="10" height="4"/>
	</g>
	<g>
		<path fill="#EAC6BB" d="M36,48.56v3.94c0,1.65-1.79,3-4,3s-4-1.35-4-3v-3.94c1.2,0.601,2.57,0.94,4,0.94S34.8,49.16,36,48.56z"/>
	</g>
	<g>
		<path fill="#656D78" d="M28,52.5c0,1.65,1.79,3,4,3s4-1.35,4-3h3c2.76,0,5,2.24,5,5v4c0,0.55-0.45,1-1,1H21c-0.55,0-1-0.45-1-1v-4
			c0-2.76,2.24-5,5-5H28z"/>
	</g>
	<g>
		<g>
			<path fill="#545C66" d="M39,52.5h-3l0,0c2.759,0.002,4.997,2.241,4.997,5v4c0,0.55-0.45,1-1,1H43c0.55,0,1-0.45,1-1v-4
				C44,54.74,41.76,52.5,39,52.5z"/>
		</g>
	</g>
	<g>
		<path fill="#EAC6BB" d="M4,43.5v7H1v-4C1,44.84,2.34,43.5,4,43.5z"/>
	</g>
	<g>
		<path fill="#D3B1A9" d="M19,46.5v4h-3v-7C17.66,43.5,19,44.84,19,46.5z"/>
	</g>
	<g>
		<path fill="#ED5565" d="M43,11.5v3c0,1.66-1.35,3-3,3c-1.66,0-3-1.34-3-3v-3v-4v-3c0-1.66,1.34-3,3-3c1.65,0,3,1.34,3,3v3V11.5z"
			/>
	</g>
	<g>
		<path fill="#D3B1A9" d="M63,46.5v4h-3v-7C61.66,43.5,63,44.84,63,46.5z"/>
	</g>
	<g>
		<path fill="#EAC6BB" d="M13,39.82v3.68c0,1.1-1.34,2-3,2s-3-0.9-3-2v-3.68V39.81c0.91,0.44,1.92,0.681,3,0.681s2.09-0.24,3-0.681
			V39.82z"/>
	</g>
	<g>
		<path fill="#EAC6BB" d="M17,33.49v0.01c0,2.79-1.64,5.2-4,6.31c-0.91,0.44-1.92,0.681-3,0.681s-2.09-0.24-3-0.681
			C4.64,38.7,3,36.29,3,33.5v-0.01v-3.86c5.81,0.68,8.13-1.27,10-1.66c1.24-0.26,2.28,0.15,4,2.4V33.49z"/>
	</g>
	<g>
		<path fill="#D3B1A9" d="M13.997,27.939v5.551v0.01c0,2.79-1.64,5.2-4,6.31c-0.474,0.229-0.976,0.401-1.499,0.516
			C8.981,40.432,9.481,40.49,10,40.49c1.08,0,2.09-0.24,3-0.681c2.36-1.109,4-3.52,4-6.31v-0.01v-3.12
			C15.754,28.739,14.864,28.083,13.997,27.939z"/>
	</g>
	<g>
		<path fill="#965353" d="M41,34.5v3.02l-3-2.02c0,0-2.01,1-5.5,1s-6.5-1-6.5-1l-3,2.02V34.5c0-4.43,3.58-8.01,8-8.01h6v4
			C39.21,30.49,41,32.28,41,34.5z"/>
	</g>
	<g>
		<path fill="#844747" d="M41,37.52V34.5c0-2.22-1.79-4.01-4-4.01v-4h-3v4c0,1.657,1.343,3,3,3c0.552,0,1,0.453,1,1.01v1L41,37.52z"
			/>
	</g>
	<g>
		<rect x="18" y="7.5" fill="#E6E9ED" width="3" height="4"/>
	</g>
	<g>
		<path fill="#ED5565" d="M27,11.5v3c0,1.66-1.34,3-3,3c-1.65,0-3-1.34-3-3v-3v-4v-3c0-1.66,1.35-3,3-3c1.66,0,3,1.34,3,3v3V11.5z"
			/>
	</g>
	<g>
		<path fill="#EAC6BB" d="M61,30.5v3c0,2.79-1.63,5.2-4,6.32c-0.91,0.439-1.92,0.68-3,0.68s-2.09-0.24-3-0.68
			c-2.37-1.12-4-3.53-4-6.32v-2.98l2-2.01l0.01-0.01c0.2,0.08,2.34,1.02,4.931,1.02c2.54,0,4.76-0.899,5.029-1.01L59,28.52L61,30.5z
			"/>
	</g>
	<g>
		<path fill="#D3B1A9" d="M59,28.52l-0.03-0.01c-0.097,0.039-0.451,0.182-0.973,0.346V33.5c0,2.79-1.63,5.2-4,6.32
			c-0.474,0.229-0.976,0.4-1.499,0.516C52.981,40.441,53.481,40.5,54,40.5c1.08,0,2.09-0.24,3-0.68c2.37-1.12,4-3.53,4-6.32v-3
			L59,28.52z"/>
	</g>
	<g>
		<path fill="#656D78" d="M47,28.5c0-3.86,3.13-7,7-7s7,3.14,7,7v2l-2-1.98l-0.03-0.01c-0.27,0.11-2.489,1.01-5.029,1.01
			c-2.591,0-4.73-0.939-4.931-1.02L49,28.51l-2,2.01V28.5z"/>
	</g>
	<g>
		<g>
			<path fill="#545C66" d="M54,21.5c-0.516,0-1.018,0.06-1.502,0.165c3.146,0.688,5.499,3.489,5.499,6.835v0.355
				c0.521-0.164,0.876-0.307,0.973-0.346L59,28.52l2,1.98v-2C61,24.64,57.87,21.5,54,21.5z"/>
		</g>
	</g>
	<g>
		<path fill="#EAC6BB" d="M45,46.5c0-1.66,1.34-3,3-3v7h-3V46.5z"/>
	</g>
	<g>
		<rect x="43" y="7.5" fill="#E6E9ED" width="3" height="4"/>
	</g>
	<g>
		<path fill="#48CFAD" d="M51,43.5c0,1.1,1.34,2,3,2s3-0.9,3-2h3v7H48v-7H51z"/>
	</g>
	<g>
		<path fill="#EAC6BB" d="M57,39.82v3.68c0,1.1-1.34,2-3,2s-3-0.9-3-2v-3.68c0.91,0.439,1.92,0.68,3,0.68S56.09,40.26,57,39.82z"/>
	</g>
	<g>
		<path fill="#5D9CEC" d="M7,43.5c0,1.1,1.34,2,3,2s3-0.9,3-2h3v7H4v-7H7z"/>
	</g>
	<g>
		<path fill="#4A89DC" d="M15.997,46.5H16v-3h-3C14.659,43.502,15.997,44.841,15.997,46.5z"/>
	</g>
	<g>
		<path fill="#37BC9B" d="M59.997,46.5H60v-3h-3C58.659,43.502,59.997,44.841,59.997,46.5z"/>
	</g>
</g>
<g>
	<g>
		<path d="M3,34.496c-0.553,0-1-0.447-1-1v-3.869c0-0.552,0.447-1,1-1s1,0.448,1,1v3.869C4,34.049,3.553,34.496,3,34.496z"/>
	</g>
	<g>
		<path d="M17,34.496c-0.553,0-1-0.447-1-1v-4.501c0-0.552,0.447-1,1-1s1,0.448,1,1v4.501C18,34.049,17.553,34.496,17,34.496z"/>
	</g>
	<g>
		<path d="M17,29.995c-0.553,0-1-0.448-1-1c0-3.584-2.916-6.5-6.501-6.5c-3.584,0-6.499,2.916-6.499,6.5c0,0.552-0.447,1-1,1
			s-1-0.448-1-1c0-4.687,3.813-8.5,8.499-8.5c4.688,0,8.501,3.813,8.501,8.5C18,29.547,17.553,29.995,17,29.995z"/>
	</g>
	<g>
		<path d="M17.001,31.366c-0.301,0-0.598-0.135-0.795-0.392c-1.931-2.522-2.456-2.313-4.414-1.538
			c-1.879,0.744-4.715,1.868-9.948,1.042c-0.545-0.086-0.918-0.598-0.831-1.144c0.086-0.545,0.6-0.918,1.144-0.832
			c4.693,0.742,7.124-0.222,8.899-0.926c2.408-0.954,4.024-1.364,6.738,2.181c0.336,0.438,0.253,1.066-0.186,1.402
			C17.427,31.298,17.213,31.366,17.001,31.366z"/>
	</g>
	<g>
		<path d="M12.999,28.971c-0.147,0-0.298-0.033-0.439-0.103c-0.496-0.243-0.7-0.843-0.457-1.338l2-4.072
			c0.243-0.496,0.842-0.702,1.338-0.457c0.496,0.243,0.7,0.843,0.457,1.338l-2,4.072C13.724,28.766,13.368,28.971,12.999,28.971z"/>
	</g>
	<g>
		<path d="M1,47.496c-0.553,0-1-0.447-1-1c0-2.206,1.794-4,4-4c0.553,0,1,0.447,1,1s-0.447,1-1,1c-1.103,0-2,0.897-2,2
			C2,47.049,1.553,47.496,1,47.496z"/>
	</g>
	<g>
		<path d="M7,44.502H4c-0.553,0-1-0.447-1-1s0.447-1,1-1h3c0.553,0,1,0.447,1,1S7.553,44.502,7,44.502z"/>
	</g>
	<g>
		<path d="M1,51.5c-0.553,0-1-0.447-1-1v-4.004c0-0.553,0.447-1,1-1s1,0.447,1,1V50.5C2,51.053,1.553,51.5,1,51.5z"/>
	</g>
	<g>
		<path d="M19,47.496c-0.553,0-1-0.447-1-1c0-1.103-0.897-2-2-2c-0.553,0-1-0.447-1-1s0.447-1,1-1c2.206,0,4,1.794,4,4
			C20,47.049,19.553,47.496,19,47.496z"/>
	</g>
	<g>
		<path d="M16,44.502h-3c-0.553,0-1-0.447-1-1s0.447-1,1-1h3c0.553,0,1,0.447,1,1S16.553,44.502,16,44.502z"/>
	</g>
	<g>
		<path d="M19,51.5c-0.553,0-1-0.447-1-1v-4.004c0-0.553,0.447-1,1-1s1,0.447,1,1V50.5C20,51.053,19.553,51.5,19,51.5z"/>
	</g>
	<g>
		<path d="M19,51.5H1c-0.553,0-1-0.447-1-1s0.447-1,1-1h18c0.553,0,1,0.447,1,1S19.553,51.5,19,51.5z"/>
	</g>
	<g>
		<path d="M7,44.502c-0.553,0-1-0.447-1-1v-3.686c0-0.553,0.447-1,1-1s1,0.447,1,1v3.686C8,44.055,7.553,44.502,7,44.502z"/>
	</g>
	<g>
		<path d="M13,44.496c-0.553,0-1-0.447-1-1v-3.68c0-0.553,0.447-1,1-1s1,0.447,1,1v3.68C14,44.049,13.553,44.496,13,44.496z"/>
	</g>
	<g>
		<path d="M10,41.49c-4.411,0-8-3.588-8-7.998c0-0.552,0.447-1,1-1s1,0.448,1,1c0,3.308,2.691,5.998,6,5.998s6-2.69,6-5.998
			c0-0.552,0.447-1,1-1s1,0.448,1,1C18,37.902,14.411,41.49,10,41.49z"/>
	</g>
	<g>
		<path d="M45,47.496c-0.553,0-1-0.447-1-1c0-2.206,1.794-4,4-4c0.553,0,1,0.447,1,1s-0.447,1-1,1c-1.103,0-2,0.897-2,2
			C46,47.049,45.553,47.496,45,47.496z"/>
	</g>
	<g>
		<path d="M51,44.502h-3c-0.553,0-1-0.447-1-1s0.447-1,1-1h3c0.553,0,1,0.447,1,1S51.553,44.502,51,44.502z"/>
	</g>
	<g>
		<path d="M45,51.5c-0.553,0-1-0.447-1-1v-4.004c0-0.553,0.447-1,1-1s1,0.447,1,1V50.5C46,51.053,45.553,51.5,45,51.5z"/>
	</g>
	<g>
		<path d="M63,47.496c-0.553,0-1-0.447-1-1c0-1.103-0.897-2-2-2c-0.553,0-1-0.447-1-1s0.447-1,1-1c2.206,0,4,1.794,4,4
			C64,47.049,63.553,47.496,63,47.496z"/>
	</g>
	<g>
		<path d="M60,44.502h-3c-0.553,0-1-0.447-1-1s0.447-1,1-1h3c0.553,0,1,0.447,1,1S60.553,44.502,60,44.502z"/>
	</g>
	<g>
		<path d="M63,51.5c-0.553,0-1-0.447-1-1v-4.004c0-0.553,0.447-1,1-1s1,0.447,1,1V50.5C64,51.053,63.553,51.5,63,51.5z"/>
	</g>
	<g>
		<path d="M63,51.5H45c-0.553,0-1-0.447-1-1s0.447-1,1-1h18c0.553,0,1,0.447,1,1S63.553,51.5,63,51.5z"/>
	</g>
	<g>
		<path d="M51,44.502c-0.553,0-1-0.447-1-1v-3.686c0-0.553,0.447-1,1-1s1,0.447,1,1v3.686C52,44.055,51.553,44.502,51,44.502z"/>
	</g>
	<g>
		<path d="M57,44.496c-0.553,0-1-0.447-1-1v-3.68c0-0.553,0.447-1,1-1s1,0.447,1,1v3.68C58,44.049,57.553,44.496,57,44.496z"/>
	</g>
	<g>
		<path d="M20,58.5c-0.553,0-1-0.447-1-1c0-3.309,2.691-6,6-6c0.553,0,1,0.447,1,1s-0.447,1-1,1c-2.206,0-4,1.794-4,4
			C21,58.053,20.553,58.5,20,58.5z"/>
	</g>
	<g>
		<path d="M28,53.5h-3c-0.553,0-1-0.447-1-1s0.447-1,1-1h3c0.553,0,1,0.447,1,1S28.553,53.5,28,53.5z"/>
	</g>
	<g>
		<path d="M20,62.5c-0.553,0-1-0.447-1-1v-4c0-0.553,0.447-1,1-1s1,0.447,1,1v4C21,62.053,20.553,62.5,20,62.5z"/>
	</g>
	<g>
		<path d="M21,63.5c-1.103,0-2-0.897-2-2c0-0.531,0.418-0.914,0.948-0.943c0.559-0.021,0.992,0.416,1.052,0.942c0.552,0,1,0.448,1,1
			C22,63.052,21.553,63.5,21,63.5z"/>
	</g>
	<g>
		<path d="M44,58.5c-0.553,0-1-0.447-1-1c0-2.206-1.794-4-4-4c-0.553,0-1-0.447-1-1s0.447-1,1-1c3.309,0,6,2.691,6,6
			C45,58.053,44.553,58.5,44,58.5z"/>
	</g>
	<g>
		<path d="M39,53.5h-3c-0.553,0-1-0.447-1-1s0.447-1,1-1h3c0.553,0,1,0.447,1,1S39.553,53.5,39,53.5z"/>
	</g>
	<g>
		<path d="M44,62.5c-0.553,0-1-0.447-1-1v-4c0-0.553,0.447-1,1-1s1,0.447,1,1v4C45,62.053,44.553,62.5,44,62.5z"/>
	</g>
	<g>
		<path d="M43,63.5c-0.553,0-1-0.447-1-1s0.447-1,1-1c0-0.553,0.447-1,1-1s1,0.447,1,1C45,62.603,44.103,63.5,43,63.5z"/>
	</g>
	<g>
		<path d="M43,63.5H21c-0.553,0-1-0.447-1-1s0.447-1,1-1h22c0.553,0,1,0.447,1,1S43.553,63.5,43,63.5z"/>
	</g>
	<g>
		<path d="M28,53.5c-0.553,0-1-0.447-1-1v-3.936c0-0.553,0.447-1,1-1s1,0.447,1,1V52.5C29,53.053,28.553,53.5,28,53.5z"/>
	</g>
	<g>
		<path d="M36,53.5c-0.553,0-1-0.447-1-1v-3.936c0-0.553,0.447-1,1-1s1,0.447,1,1V52.5C37,53.053,36.553,53.5,36,53.5z"/>
	</g>
	<g>
		<path d="M31.999,50.5c-5.514,0-9.999-4.486-9.999-10c0-0.553,0.447-1,1-1s1,0.447,1,1c0,4.411,3.588,8,7.999,8
			c4.412,0,8.001-3.589,8.001-8c0-0.553,0.447-1,1-1s1,0.447,1,1C42,46.014,37.514,50.5,31.999,50.5z"/>
	</g>
	<g>
		<path d="M23,41.549c-0.553,0-1-0.447-1-1v-6.053c0-0.553,0.447-1,1-1s1,0.447,1,1v6.053C24,41.102,23.553,41.549,23,41.549z"/>
	</g>
	<g>
		<path d="M41,41.5c-0.553,0-1-0.447-1-1v-6.004c0-0.553,0.447-1,1-1s1,0.447,1,1V40.5C42,41.053,41.553,41.5,41,41.5z"/>
	</g>
	<g>
		<path d="M41,35.496c-0.553,0-1-0.447-1-1c0-1.655-1.346-3.001-3-3.001c-0.553,0-1-0.448-1-1s0.447-1,1-1c2.757,0,5,2.244,5,5.001
			C42,35.049,41.553,35.496,41,35.496z"/>
	</g>
	<g>
		<path d="M37,31.495c-0.553,0-1-0.448-1-1v-4c0-0.552,0.447-1,1-1s1,0.448,1,1v4C38,31.047,37.553,31.495,37,31.495z"/>
	</g>
	<g>
		<path d="M37,27.495h-6c-0.553,0-1-0.448-1-1s0.447-1,1-1h6c0.553,0,1,0.448,1,1S37.553,27.495,37,27.495z"/>
	</g>
	<g>
		<path d="M23,35.496c-0.553,0-1-0.447-1-1c0-4.963,4.037-9.001,9-9.001c0.553,0,1,0.448,1,1s-0.447,1-1,1c-3.859,0-7,3.141-7,7.001
			C24,35.049,23.553,35.496,23,35.496z"/>
	</g>
	<g>
		<g>
			<path d="M40.999,38.523c-0.192,0-0.388-0.056-0.559-0.172l-3-2.027c-0.458-0.309-0.578-0.931-0.269-1.388
				c0.308-0.458,0.932-0.579,1.388-0.269l3,2.027c0.458,0.309,0.578,0.931,0.269,1.388C41.636,38.369,41.32,38.523,40.999,38.523z"
				/>
		</g>
		<g>
			<path d="M32.5,37.496c-3.612,0-6.687-1.008-6.815-1.051c-0.523-0.175-0.807-0.74-0.634-1.264
				c0.174-0.523,0.739-0.807,1.264-0.635c0.029,0.01,2.908,0.949,6.186,0.949c3.178,0,5.04-0.888,5.059-0.897
				c0.494-0.239,1.094-0.038,1.337,0.457c0.243,0.494,0.043,1.09-0.449,1.336C38.355,36.437,36.186,37.496,32.5,37.496z"/>
		</g>
		<g>
			<path d="M23.001,38.523c-0.321,0-0.637-0.154-0.829-0.44c-0.31-0.457-0.189-1.079,0.269-1.388l3-2.027
				c0.456-0.311,1.08-0.189,1.388,0.269c0.31,0.457,0.189,1.079-0.269,1.388l-3,2.027C23.389,38.468,23.193,38.523,23.001,38.523z"
				/>
		</g>
	</g>
	<g>
		<path d="M2,30.491c-0.553,0-1-0.448-1-1v-0.496c0-0.552,0.447-1,1-1s1,0.448,1,1v0.496C3,30.043,2.553,30.491,2,30.491z"/>
	</g>
	<g>
		<g>
			<path d="M47,34.504c-0.553,0-1-0.447-1-1V28.5c0-0.552,0.447-1,1-1s1,0.448,1,1v5.003C48,34.057,47.553,34.504,47,34.504z"/>
		</g>
		<g>
			<path d="M61,34.504c-0.553,0-1-0.447-1-1V28.5c0-0.552,0.447-1,1-1s1,0.448,1,1v5.003C62,34.057,61.553,34.504,61,34.504z"/>
		</g>
		<g>
			<path d="M54,41.496c-4.411,0-8-3.588-8-7.998c0-0.552,0.447-1,1-1s1,0.448,1,1c0,3.308,2.691,5.998,6,5.998s6-2.69,6-5.998
				c0-0.552,0.447-1,1-1s1,0.448,1,1C62,37.908,58.411,41.496,54,41.496z"/>
		</g>
		<g>
			<g>
				<path d="M61,29.5c-0.553,0-1-0.448-1-1c0-3.306-2.691-5.996-6-5.996s-6,2.69-6,5.996c0,0.552-0.447,1-1,1s-1-0.448-1-1
					c0-4.409,3.589-7.996,8-7.996s8,3.587,8,7.996C62,29.053,61.553,29.5,61,29.5z"/>
			</g>
			<g>
				<path d="M53.937,30.518c-2.9,0-5.256-1.07-5.354-1.115c-0.501-0.23-0.72-0.823-0.49-1.325c0.229-0.5,0.823-0.72,1.325-0.493
					c0.021,0.009,2.072,0.933,4.52,0.933c2.481,0,4.646-0.922,4.667-0.932c0.507-0.22,1.096,0.015,1.314,0.521
					s-0.015,1.096-0.521,1.314C59.293,29.467,56.827,30.518,53.937,30.518z"/>
			</g>
			<g>
				<g>
					<path d="M61,31.504c-0.254,0-0.509-0.096-0.704-0.29l-2-1.98c-0.392-0.389-0.396-1.021-0.007-1.414
						c0.39-0.392,1.021-0.396,1.415-0.007l2,1.98c0.392,0.389,0.396,1.021,0.007,1.414C61.515,31.405,61.258,31.504,61,31.504z"/>
				</g>
				<g>
					<path d="M47,31.524c-0.255,0-0.511-0.097-0.705-0.291c-0.392-0.39-0.394-1.023-0.004-1.415l2-2.01
						c0.39-0.391,1.024-0.392,1.414-0.003c0.392,0.39,0.394,1.023,0.004,1.415l-2,2.01C47.514,31.426,47.257,31.524,47,31.524z"/>
				</g>
			</g>
		</g>
	</g>
	<g>
		<path d="M3.999,51.5c-0.553,0-1-0.447-1-1v-6.998c0-0.553,0.447-1,1-1s1,0.447,1,1V50.5C4.999,51.053,4.552,51.5,3.999,51.5z"/>
	</g>
	<g>
		<path d="M16.001,51.5c-0.553,0-1-0.447-1-1v-6.998c0-0.553,0.447-1,1-1s1,0.447,1,1V50.5C17.001,51.053,16.554,51.5,16.001,51.5z"
			/>
	</g>
	<g>
		<path d="M10,46.5c-2.243,0-4-1.318-4-3.002c0-0.553,0.447-1,1-1s1,0.447,1,1c0,0.408,0.779,1.002,2,1.002s2-0.594,2-1.002
			c0-0.553,0.447-1,1-1s1,0.447,1,1C14,45.182,12.243,46.5,10,46.5z"/>
	</g>
	<g>
		<path d="M47.999,51.5c-0.553,0-1-0.447-1-1v-6.998c0-0.553,0.447-1,1-1s1,0.447,1,1V50.5C48.999,51.053,48.552,51.5,47.999,51.5z"
			/>
	</g>
	<g>
		<path d="M60.001,51.5c-0.553,0-1-0.447-1-1v-6.998c0-0.553,0.447-1,1-1s1,0.447,1,1V50.5C61.001,51.053,60.554,51.5,60.001,51.5z"
			/>
	</g>
	<g>
		<path d="M54,46.5c-2.243,0-4-1.318-4-3.002c0-0.553,0.447-1,1-1s1,0.447,1,1c0,0.408,0.779,1.002,2,1.002s2-0.594,2-1.002
			c0-0.553,0.447-1,1-1s1,0.447,1,1C58,45.182,56.243,46.5,54,46.5z"/>
	</g>
	<g>
		<path d="M32,56.5c-2.757,0-5-1.796-5-4.004c0-0.553,0.447-1,1-1s1,0.447,1,1c0,1.086,1.374,2.004,3,2.004s3-0.918,3-2.004
			c0-0.553,0.447-1,1-1s1,0.447,1,1C37,54.704,34.757,56.5,32,56.5z"/>
	</g>
	<g>
		<g>
			<g>
				<path d="M42.998,5.5c-0.553,0-1-0.448-1-1c0-1.103-0.897-2-2-2s-2,0.897-2,2c0,0.552-0.447,1-1,1s-1-0.448-1-1
					c0-2.206,1.794-4,4-4s4,1.794,4,4C43.998,5.053,43.551,5.5,42.998,5.5z"/>
			</g>
			<g>
				<path d="M39.998,18.503c-2.206,0-4-1.795-4-4.001c0-0.552,0.447-1,1-1s1,0.448,1,1c0,1.104,0.897,2.001,2,2.001s2-0.897,2-2.001
					c0-0.552,0.447-1,1-1s1,0.448,1,1C43.998,16.708,42.204,18.503,39.998,18.503z"/>
			</g>
		</g>
		<g>
			<g>
				<g>
					<path d="M27.002,5.5c-0.553,0-1-0.448-1-1c0-1.103-0.897-2-2-2s-2,0.897-2,2c0,0.552-0.447,1-1,1s-1-0.448-1-1
						c0-2.206,1.794-4,4-4s4,1.794,4,4C28.002,5.053,27.555,5.5,27.002,5.5z"/>
				</g>
				<g>
					<path d="M24.002,18.503c-2.206,0-4-1.795-4-4.001c0-0.552,0.447-1,1-1s1,0.448,1,1c0,1.104,0.897,2.001,2,2.001
						s2-0.897,2-2.001c0-0.552,0.447-1,1-1s1,0.448,1,1C28.002,16.708,26.208,18.503,24.002,18.503z"/>
				</g>
			</g>
			<g>
				<path d="M21.002,15.502c-0.553,0-1-0.448-1-1V4.5c0-0.552,0.447-1,1-1s1,0.448,1,1v10.002
					C22.002,15.055,21.555,15.502,21.002,15.502z"/>
			</g>
		</g>
		<g>
			<path d="M27.002,15.502c-0.553,0-1-0.448-1-1V4.5c0-0.552,0.447-1,1-1s1,0.448,1,1v10.002
				C28.002,15.055,27.555,15.502,27.002,15.502z"/>
		</g>
		<g>
			<path d="M36.998,15.502c-0.553,0-1-0.448-1-1V4.5c0-0.552,0.447-1,1-1s1,0.448,1,1v10.002
				C37.998,15.055,37.551,15.502,36.998,15.502z"/>
		</g>
		<g>
			<path d="M42.998,15.502c-0.553,0-1-0.448-1-1V4.5c0-0.552,0.447-1,1-1s1,0.448,1,1v10.002
				C43.998,15.055,43.551,15.502,42.998,15.502z"/>
		</g>
		<g>
			<path d="M36.998,8.5h-9.996c-0.553,0-1-0.448-1-1s0.447-1,1-1h9.996c0.553,0,1,0.448,1,1S37.551,8.5,36.998,8.5z"/>
		</g>
		<g>
			<path d="M36.998,12.5h-9.996c-0.553,0-1-0.448-1-1s0.447-1,1-1h9.996c0.553,0,1,0.448,1,1S37.551,12.5,36.998,12.5z"/>
		</g>
		<g>
			<path d="M21.002,12.5h-2.998c-0.553,0-1-0.448-1-1v-4c0-0.552,0.447-1,1-1h2.998c0.553,0,1,0.448,1,1v4
				C22.002,12.053,21.555,12.5,21.002,12.5z M19.004,10.5h0.998v-2h-0.998V10.5z"/>
		</g>
		<g>
			<path d="M45.996,12.5h-2.998c-0.553,0-1-0.448-1-1v-4c0-0.552,0.447-1,1-1h2.998c0.553,0,1,0.448,1,1v4
				C46.996,12.053,46.549,12.5,45.996,12.5z M43.998,10.5h0.998v-2h-0.998V10.5z"/>
		</g>
	</g>
</g>
</svg>
